<svg width="101" height="43" viewBox="0 0 101 43" fill="none" xmlns="http://www.w3.org/2000/svg">
<path d="M2.22 11V32H7.38V11H2.22ZM10.1494 18.2V21.95H19.5694V18.2H10.1494ZM19.0594 12.95L20.8894 9.62C20.6894 9.42 20.4194 9.21 20.0794 8.99C19.7394 8.75 19.3294 8.55 18.8494 8.39C18.3694 8.21 17.7794 8.12 17.0794 8.12C15.9394 8.12 14.9794 8.32 14.1994 8.72C13.4394 9.12 12.8594 9.69 12.4594 10.43C12.0794 11.17 11.8894 12.06 11.8894 13.1V32H16.2394V14.24C16.2394 13.76 16.2994 13.37 16.4194 13.07C16.5394 12.77 16.6994 12.55 16.8994 12.41C17.1194 12.27 17.3794 12.2 17.6794 12.2C17.9394 12.2 18.1794 12.26 18.3994 12.38C18.6394 12.5 18.8594 12.69 19.0594 12.95Z" fill="#60A698"/>
<path d="M30.3846 14.7323C31.1067 14.7323 31.7138 14.9908 32.2062 15.5077C32.7067 16.0164 32.9569 16.6195 32.9569 17.3169C32.9569 18.0144 32.7067 18.6174 32.2062 19.1262C31.7138 19.6349 31.1067 19.8892 30.3846 19.8892C29.6626 19.8892 29.0472 19.6349 28.5385 19.1262C28.0379 18.6174 27.7877 18.0144 27.7877 17.3169C27.7877 16.8492 27.9026 16.4226 28.1323 16.0369C28.3703 15.6431 28.6862 15.3272 29.08 15.0892C29.4738 14.8513 29.9087 14.7323 30.3846 14.7323ZM30.3846 23.1508C31.1149 23.1508 31.7262 23.3969 32.2185 23.8892C32.7108 24.3733 32.9569 24.9805 32.9569 25.7108C32.9569 26.1621 32.8667 26.6338 32.6862 27.1262C32.5138 27.6103 32.2636 28.2297 31.9354 28.9846L30.2246 32.8615H27.7138L28.92 27.8154C28.1651 27.3313 27.7877 26.6215 27.7877 25.6862C27.7877 24.9641 28.0379 24.361 28.5385 23.8769C29.039 23.3928 29.6544 23.1508 30.3846 23.1508Z" fill="#4C566A"/>
<path d="M52.79 32.3C54.55 32.3 56.04 31.96 57.26 31.28C58.5 30.6 59.48 29.58 60.2 28.22L56.15 27.23C55.81 27.83 55.35 28.28 54.77 28.58C54.21 28.88 53.53 29.03 52.73 29.03C52.03 29.03 51.44 28.88 50.96 28.58C50.48 28.26 50.12 27.8 49.88 27.2C49.64 26.6 49.52 25.88 49.52 25.04C49.54 24.12 49.66 23.36 49.88 22.76C50.12 22.14 50.47 21.68 50.93 21.38C51.39 21.08 51.96 20.93 52.64 20.93C53.18 20.93 53.65 21.05 54.05 21.29C54.45 21.53 54.76 21.87 54.98 22.31C55.2 22.75 55.31 23.27 55.31 23.87C55.31 24.01 55.27 24.19 55.19 24.41C55.13 24.61 55.05 24.78 54.95 24.92L56.03 23.54H47.51V26.06H60.11C60.15 25.92 60.17 25.75 60.17 25.55C60.17 25.33 60.17 25.11 60.17 24.89C60.17 23.41 59.88 22.15 59.3 21.11C58.72 20.07 57.88 19.28 56.78 18.74C55.68 18.18 54.33 17.9 52.73 17.9C51.13 17.9 49.74 18.19 48.56 18.77C47.4 19.35 46.51 20.18 45.89 21.26C45.27 22.34 44.96 23.62 44.96 25.1C44.96 26.56 45.28 27.83 45.92 28.91C46.56 29.99 47.46 30.83 48.62 31.43C49.8 32.01 51.19 32.3 52.79 32.3ZM62.9673 8.6V32H67.5273V8.6H62.9673ZM71.8032 26.99L69.9132 29.99C70.5332 30.47 71.2032 30.91 71.9232 31.31C72.6432 31.69 73.4232 31.99 74.2632 32.21C75.1232 32.45 76.0532 32.57 77.0532 32.57C78.6932 32.57 79.9632 32.2 80.8632 31.46C81.7832 30.7 82.2432 29.58 82.2432 28.1C82.2432 27.24 82.0532 26.55 81.6732 26.03C81.3132 25.51 80.8232 25.08 80.2032 24.74C79.6032 24.4 78.9432 24.1 78.2232 23.84C77.5432 23.58 76.9632 23.37 76.4832 23.21C76.0232 23.03 75.6632 22.84 75.4032 22.64C75.1632 22.44 75.0432 22.19 75.0432 21.89C75.0432 21.63 75.1432 21.42 75.3432 21.26C75.5632 21.1 75.8832 21.02 76.3032 21.02C76.9232 21.02 77.6032 21.2 78.3432 21.56C79.0832 21.9 79.7432 22.34 80.3232 22.88L81.9432 19.94C81.4032 19.54 80.8232 19.19 80.2032 18.89C79.6032 18.59 78.9532 18.35 78.2532 18.17C77.5732 17.99 76.8332 17.9 76.0332 17.9C75.0332 17.9 74.1432 18.05 73.3632 18.35C72.6032 18.65 71.9932 19.09 71.5332 19.67C71.0932 20.25 70.8732 20.96 70.8732 21.8C70.8732 22.68 71.0632 23.4 71.4432 23.96C71.8232 24.52 72.3032 24.97 72.8832 25.31C73.4832 25.63 74.1132 25.91 74.7732 26.15C75.5132 26.37 76.0932 26.58 76.5132 26.78C76.9532 26.98 77.2632 27.19 77.4432 27.41C77.6232 27.61 77.7132 27.86 77.7132 28.16C77.7132 28.48 77.6032 28.74 77.3832 28.94C77.1632 29.14 76.8232 29.24 76.3632 29.24C76.0432 29.24 75.6632 29.18 75.2232 29.06C74.7832 28.92 74.2732 28.69 73.6932 28.37C73.1332 28.03 72.5032 27.57 71.8032 26.99ZM91.7548 32.3C93.5148 32.3 95.0048 31.96 96.2248 31.28C97.4648 30.6 98.4448 29.58 99.1648 28.22L95.1148 27.23C94.7748 27.83 94.3148 28.28 93.7348 28.58C93.1748 28.88 92.4948 29.03 91.6948 29.03C90.9948 29.03 90.4048 28.88 89.9248 28.58C89.4448 28.26 89.0848 27.8 88.8448 27.2C88.6048 26.6 88.4848 25.88 88.4848 25.04C88.5048 24.12 88.6248 23.36 88.8448 22.76C89.0848 22.14 89.4348 21.68 89.8948 21.38C90.3548 21.08 90.9248 20.93 91.6048 20.93C92.1448 20.93 92.6148 21.05 93.0148 21.29C93.4148 21.53 93.7248 21.87 93.9448 22.31C94.1648 22.75 94.2748 23.27 94.2748 23.87C94.2748 24.01 94.2348 24.19 94.1548 24.41C94.0948 24.61 94.0148 24.78 93.9148 24.92L94.9948 23.54H86.4748V26.06H99.0748C99.1148 25.92 99.1348 25.75 99.1348 25.55C99.1348 25.33 99.1348 25.11 99.1348 24.89C99.1348 23.41 98.8448 22.15 98.2648 21.11C97.6848 20.07 96.8448 19.28 95.7448 18.74C94.6448 18.18 93.2948 17.9 91.6948 17.9C90.0948 17.9 88.7048 18.19 87.5248 18.77C86.3648 19.35 85.4748 20.18 84.8548 21.26C84.2348 22.34 83.9248 23.62 83.9248 25.1C83.9248 26.56 84.2448 27.83 84.8848 28.91C85.5248 29.99 86.4248 30.83 87.5848 31.43C88.7648 32.01 90.1548 32.3 91.7548 32.3Z" fill="#EEBCAA"/>
</svg>
